<mxfile host="app.diagrams.net" modified="2024-03-29T03:10:22.167Z" agent="Mozilla/5.0 (Windows NT 10.0; Win64; x64) AppleWebKit/537.36 (KHTML, like Gecko) Chrome/123.0.0.0 Safari/537.36" version="24.0.2" etag="1e9jQ51hR4PJ3pJWsxrh" type="github">
  <diagram name="Page-1" id="Ds_ucU6s0tbR9N8dVZwT">
    <mxGraphModel>
      <root>
        <mxCell id="0" />
        <mxCell id="1" parent="0" />
      </root>
    </mxGraphModel>
  </diagram>
</mxfile>
